# AST/ASF file generated using VICON BodyLanguage
# -----------------------------------------------
:version 1.10
:name VICON
:units
  mass 1.0
  length 0.45
  angle deg
:documentation
   .ast/.asf automatically generated from VICON data using
   VICON BodyBuilder and BodyLanguage model FoxedUp or BRILLIANT.MOD
:root
   order TX TY TZ RX RY RZ
   axis XYZ
   position 0 0 0  
   orientation 0 0 0 
:bonedata
  begin
     id 1 
     name lhipjoint
     direction 0.611804 -0.747784 0.257906 
     length 2.29243 
     axis 0 0 0  XYZ
  end
  begin
     id 2 
     name lfemur
     direction 0.34202 -0.939693 0  
     length 7.31159  
     axis 0 0 20  XYZ
    dof rx ry rz
    limits (-160.0 20.0)
           (-70.0 70.0)
           (-60.0 70.0)
  end
  begin
     id 3 
     name ltibia
     direction 0.34202 -0.939693 0   
     length 7.33391   
     axis 0 0 20   XYZ
    dof rx
    limits (-10.0 170.0)
  end
  begin
     id 4 
     name lfoot
     direction 0.122263 -0.335914 0.933924   
     length 1.76083   
     axis -90 7.62852e-016 20   XYZ
    dof rx rz
    limits (-45.0 90.0)
           (-70.0 20.0)
  end
  begin
     id 5 
     name ltoes
     direction 1.53533e-011 -4.2177e-011 1   
     length 0.879206   
     axis -90 7.62852e-016 20   XYZ
    dof rx
    limits (-90.0 20.0)
  end
  begin
     id 6 
     name rhipjoint
     direction -0.646469 -0.721248 0.248754   
     length 2.37677  
     axis 0 0 0  XYZ 
  end
  begin
     id 7 
     name rfemur
     direction -0.34202 -0.939693 0   
     length 7.18623   
     axis 0 0 -20   XYZ
    dof rx ry rz
    limits (-160.0 20.0)
           (-70.0 70.0)
           (-70.0 60.0)
  end
  begin
     id 8 
     name rtibia
     direction -0.34202 -0.939693 0   
     length 7.36567   
     axis 0 0 -20   XYZ
    dof rx
    limits (-10.0 170.0)
 end
 begin
     id 9 
     name rfoot
     direction -0.126681 -0.348054 0.928876   
     length 1.71902  
     axis -90 -7.62852e-016 -20   XYZ
    dof rx rz
    limits (-45.0 90.0)
           (-20.0 70.0)
  end
  begin
     id 10 
     name rtoes
     direction -1.53551e-011 -4.21898e-011 1   
     length 0.857792   
     axis -90 -7.62852e-016 -20   XYZ
    dof rx
    limits (-90.0 20.0)
  end
  begin
     id 11 
     name lowerback
     direction 0.0106509 0.999778 0.0181844   
     length 2.07668   
     axis 0 0 0   XYZ
    dof rx ry rz
    limits (-20.0 45.0)
           (-30.0 30.0)
           (-30.0 30.0)
  end
  begin
     id 12 
     name upperback
     direction -0.00456018 0.999989 -0.000590935   
     length 2.08011   
     axis 0 0 0   XYZ
    dof rx ry rz
    limits (-20.0 45.0)
           (-30.0 30.0)
           (-30.0 30.0)
  end
  begin
     id 13 
     name thorax
     direction -0.00910382 0.999916 -0.00923765   
     length 2.07397   
     axis 0 0 0   XYZ
    dof rx ry rz
    limits (-20.0 45.0)
           (-30.0 30.0)
           (-30.0 30.0)
  end
  begin
     id 14 
     name lowerneck
     direction 0.00171967 0.99778 0.0665733   
     length 1.67556   
     axis 0 0 0   XYZ
    dof rx ry rz
    limits (-20.0 45.0)
           (-30.0 30.0)
           (-30.0 30.0)
  end
  begin
     id 15 
     name upperneck
     direction -0.0143166 0.991302 -0.130828   
     length 1.68462   
     axis 0 0 0   XYZ
    dof rx ry rz
    limits (-20.0 45.0)
           (-30.0 30.0)
           (-30.0 30.0)
  end
  begin
     id 16
     name head
     direction -0.00606378 0.998665 -0.0512995  
     length 1.69269  
     axis 0 0 0   XYZ
    dof rx ry rz
    limits (-20.0 45.0)
           (-30.0 30.0)
           (-30.0 30.0)
  end
  begin
     id 17 
     name lclavicle
     direction 0.9638 0.179341 0.197297  
     length 4.12888  
     axis 0 0 0   XYZ
    dof ry rz
    limits (-20.0 10.0)
           (0.0 20.0)
  end
  begin
     id 18 
     name lhumerus
     direction 1 -4.48972e-011 -2.47351e-027   
     length 5.01834   
     axis -180 -30 -90   XYZ
    dof rx ry rz
    limits (-60.0 90.0)
           (-90.0 90.0)
           (-90.0 90.0)
  end
  begin
     id 19
     name lradius
     direction 1 -4.48965e-011 1.51591e-026   
     length 3.4869   
     axis -180 -30 -90   XYZ
    dof rx
    limits (-10.0 170.0)
  end
  begin
     id 20
     name lwrist
     direction 1 -4.48957e-011 2.70032e-026   
     length 1.74345   
     axis -1.81515e-014 90 90   XYZ
    dof ry
    limits (-180.0 0.0)
 end
  begin
     id 21 
     name lhand
     direction 1 -4.48951e-011 5.40064e-026   
     length 0.76799   
     axis -3.44607e-014 90 90   XYZ
    dof rx rz
    limits (-90.0 90.0)
           (-45.0 45.0)
  end
  begin
     id 22 
     name lfingers
     direction 1 -4.48971e-011 1.08013e-025   
     length 0.619174   
     axis -6.89214e-014 90 90   XYZ
    dof rx
    limits (0.0 90.0)
  end
  begin
     id 23
     name lthumb
     direction 0.707107 -6.34931e-011 0.707107   
     length 0.889013   
     axis -90 45 2.85299e-015   XYZ
    dof rx rz
    limits (-45.0 45.0)
           (-45.0 45.0)
  end
  begin
     id 24 
     name rclavicle
     direction -0.961409 0.252588 0.109054   
     length 4.04305  
     axis 0 0 0   XYZ 
    dof ry rz
    limits (-10.0 20.0)
           (-20.0 0.0)
  end
  begin
     id 25 
     name rhumerus
     direction -1 -4.4897e-011 1.33872e-017  
     length 4.70164   
     axis -180 30 90   XYZ
    dof rx ry rz
    limits (-90.0 60.0)
           (-90.0 90.0)
           (-90.0 90.0)
  end
  begin
     id 26 
     name rradius
     direction -1 -4.48954e-011 1.83844e-026   
     length 3.49911   
     axis -180 30 90   XYZ
    dof rx
    limits (-10.0 170.0)
  end
  begin
     id 27 
     name rwrist
     direction -1 -4.49008e-011 2.70032e-026   
     length 1.74955   
     axis -1.81515e-014 -90 -90   XYZ
    dof ry
    limits (-180.0 0.0)
  end
  begin
     id 28
     name rhand
     direction -1 -4.48916e-011 5.40064e-026   
     length 0.739335   
     axis -3.44607e-014 -90 -90   XYZ
    dof rx rz
    limits (-90.0 90.0)
           (-45.0 45.0)
  end
  begin
     id 29
     name rfingers
     direction -1 -4.48987e-011 1.08013e-025   
     length 0.596071   
     axis -6.89214e-014 -90 -90   XYZ
    dof rx
    limits (0.0 90.0)
  end
  begin
     id 30
     name rthumb
     direction -0.707107 -6.34935e-011 0.707107   
     length 0.855843   
     axis -90 -45 -2.85299e-015   XYZ
    dof rx rz
    limits (-45.0 45.0)
           (-45.0 45.0)
  end
:hierarchy
  begin
    root lhipjoint rhipjoint lowerback
    lhipjoint lfemur
    lfemur ltibia
    ltibia lfoot
    lfoot ltoes
    rhipjoint rfemur
    rfemur rtibia
    rtibia rfoot
    rfoot rtoes
    lowerback upperback
    upperback thorax
    thorax lowerneck lclavicle rclavicle
    lowerneck upperneck
    upperneck head
    lclavicle lhumerus
    lhumerus lradius
    lradius lwrist
    lwrist lhand lthumb
    lhand lfingers
    rclavicle rhumerus
    rhumerus rradius
    rradius rwrist
    rwrist rhand rthumb
    rhand rfingers
  end

#!OML:ASF I:\salsa\salsa 7_09\Patient 1\Session 1\dancermale.ASF
:FULLY-SPECIFIED
:DEGREES
1207
root 0.881297 16.7974 0.279997 548.04 178.371 180.635
lowerback -4.93991 -0.736626 5.46582
upperback -1.92789 -1.23411 -0.000223498
thorax 0.664668 -0.638231 -3.1324
lowerneck -6.14239 0.0866181 -0.768659
upperneck 24.7107 -0.142508 1.54481
head 8.69399 0.0140005 0.640193
rclavicle -1.69712e-014 1.70955e-014
rhumerus -49.2081 6.18556 -84.3884
rradius 68.8508
rwrist 8.10017
rhand -28.3818 -0.789187
rfingers 7.12502
rthumb -1.7547 -30.7617
lclavicle -1.69712e-014 1.70955e-014
lhumerus -32.5194 -56.4024 86.476
lradius 44.9473
lwrist -27.0819
lhand -11.1382 63.1669
lfingers 7.12502
lthumb 14.8874 267.388
rfemur -25.5606 1.36274 22.4059
rtibia 41.1428
rfoot -22.7925 -5.96965
rtoes 1.46991
lfemur -32.6833 -2.75966 -0.00441907
ltibia 55.3574
lfoot -14.3784 2.15161
ltoes -2.50373
1208
root 1.03316 16.8005 0.408321 548.288 181.68 180.868
lowerback -4.83848 -0.630221 5.24579
upperback -1.93942 -1.07576 -0.120516
thorax 0.613406 -0.560804 -3.12336
lowerneck -6.24608 -0.856922 -1.34002
upperneck 24.5571 -1.4959 1.9537
head 8.68598 -0.643737 0.749386
rclavicle 8.69683e-017 -1.47101e-014
rhumerus -49.2962 8.09188 -84.6638
rradius 68.8225
rwrist 8.3077
rhand -27.7521 -0.421417
rfingers 7.12502
rthumb -1.14653 -30.3981
lclavicle 8.69683e-017 -1.47101e-014
lhumerus -35.7895 -56.2753 87.0606
lradius 43.742
lwrist -27.2771
lhand -10.6462 62.9157
lfingers 7.12502
lthumb 15.3613 267.675
rfemur -25.4992 3.24428 21.4572
rtibia 41.0752
rfoot -22.7182 -5.01041
rtoes 1.65784
lfemur -31.4665 -4.64298 2.24233
ltibia 50.0205
lfoot -12.8823 1.17251
ltoes -2.32368
1209
root 1.19009 16.8061 0.539109 548.453 184.944 181.209
lowerback -4.7431 -0.565025 4.84113
upperback -1.89788 -0.966848 -0.194122
thorax 0.619674 -0.504462 -2.96562
lowerneck -6.23965 -1.75174 -1.91569
upperneck 24.3838 -2.76352 2.29993
head 8.66326 -1.26779 0.845176
rclavicle 1.76421e-015 2.8625e-014
rhumerus -49.5296 9.98212 -84.7629
rradius 68.9104
rwrist 8.63953
rhand -27.2969 -0.0667378
rfingers 7.12502
rthumb -0.706821 -30.0453
lclavicle 1.76421e-015 2.8625e-014
lhumerus -39.5154 -56.2166 88.0918
lradius 42.8049
lwrist -28.3301
lhand -9.99358 61.5893
lfingers 7.12502
lthumb 15.9898 269.051
rfemur -25.6089 4.64923 20.3199
rtibia 41.2126
rfoot -22.6184 -3.88852
rtoes 1.90694
lfemur -29.9369 -6.86483 4.12563
ltibia 44.8444
lfoot -10.909 0.470134
ltoes 0.220557
1210
root 1.35583 16.817 0.676306 548.507 188.229 181.666
lowerback -4.61782 -0.534004 4.30873
upperback -1.8386 -0.897683 -0.238899
thorax 0.62568 -0.467149 -2.70806
lowerneck -6.27534 -2.52989 -2.57211
upperneck 24.4146 -3.87314 2.70025
head 8.73024 -1.81767 0.985773
rclavicle 1.36664e-015 -6.75868e-015
rhumerus -50.0031 11.7365 -84.7554
rradius 68.9811
rwrist 9.34687
rhand -27.212 0.397993
rfingers 7.12502
rthumb -0.624882 -29.5808
lclavicle 1.36664e-015 -6.75868e-015
lhumerus -43.6888 -56.0425 89.7134
lradius 42.4867
lwrist -28.1577
lhand -9.36131 61.5351
lfingers 7.12502
lthumb 16.5986 269.155
rfemur -25.7508 5.89471 18.9716
rtibia 41.3878
rfoot -22.5615 -2.67309
rtoes 2.4791
lfemur -28.0855 -10.037 5.7804
ltibia 39.8335
lfoot -10.0291 -0.648201
ltoes -0.120698
1211
root 1.53254 16.8306 0.81224 548.333 191.575 182.213
lowerback -4.30018 -0.475903 3.77012
upperback -1.72142 -0.785757 -0.309927
thorax 0.585132 -0.408636 -2.47013
lowerneck -6.42035 -3.18533 -3.06457
upperneck 24.6717 -4.80013 2.92079
head 8.89404 -2.28119 1.05037
rclavicle -3.78436e-014 -2.8625e-014
rhumerus -50.5297 13.309 -84.5753
rradius 68.9931
rwrist 9.84724
rhand -27.0847 1.28183
rfingers 7.12502
rthumb -0.501867 -28.6973
lclavicle -3.78436e-014 -2.8625e-014
lhumerus -47.942 -55.6439 91.6335
lradius 42.3
lwrist -27.8632
lhand -8.97335 61.5374
lfingers 7.12502
lthumb 16.9721 269.184
rfemur -25.7916 7.03071 17.4991
rtibia 41.5131
rfoot -22.4819 -1.29225
rtoes 3.25589
lfemur -25.9605 -13.4555 6.66256
ltibia 35.7037
lfoot -8.82309 -1.6418
ltoes 1.28291
1212
root 1.72527 16.8421 0.946937 548.173 194.941 182.868
lowerback -4.05557 -0.415146 3.25685
upperback -1.6073 -0.676944 -0.380171
thorax 0.579492 -0.35135 -2.24724
lowerneck -6.64439 -3.67471 -3.35674
upperneck 24.9828 -5.43238 2.75724
head 9.07146 -2.62408 0.974474
rclavicle -2.00524e-014 -1.19271e-015
rhumerus -51.0262 14.983 -84.1793
rradius 69.0697
rwrist 9.93026
rhand -26.591 2.08454
rfingers 7.12502
rthumb -0.0251079 -27.8952
lclavicle -2.00524e-014 -1.19271e-015
lhumerus -52.2113 -55.0256 93.8107
lradius 42.1547
lwrist -27.986
lhand -8.38919 61.2627
lfingers 7.12502
lthumb 17.5343 269.508
rfemur -26.3471 7.7818 15.8213
rtibia 42.1263
rfoot -22.4906 0.201411
rtoes 3.46168
lfemur -24.0817 -17.0546 6.93576
ltibia 32.6082
lfoot -6.23605 -1.46211
ltoes 5.97103
